#define icon_light_width 16
#define icon_light_height 16
static unsigned char icon_light_bits[] = {
   0xfe, 0x7f, 0x03, 0xc0, 0x01, 0x80, 0xf1, 0x81, 0xf1, 0x9d, 0xfd, 0xb1,
   0xfd, 0xa1, 0xfb, 0xc1, 0x27, 0xe1, 0xff, 0xff, 0xff, 0xfe, 0xff, 0xff,
   0xff, 0xff, 0xff, 0xff, 0xff, 0xff, 0xfe, 0x7f };
